<svg xmlns="http://www.w3.org/2000/svg" width="560" height="620" viewBox="0 0 560 620" font-family="ui-monospace,SFMono-Regular,Menlo,monospace" role="img" aria-label="layout of one 128 by 128 payload page">
<rect x="150.0" y="20" width="512.0" height="512.0" fill="#15191B" stroke="#2A3134"/>
<rect x="150.0" y="20.0" width="512.0" height="8.0" fill="#E4E9E7"/>
<rect x="150.0" y="524.0" width="512.0" height="8.0" fill="#E4E9E7"/>
<rect x="150.0" y="20.0" width="8.0" height="512.0" fill="#E4E9E7"/>
<rect x="654.0" y="20.0" width="8.0" height="512.0" fill="#E4E9E7"/>
<rect x="230.0" y="32.0" width="24.0" height="16.0" fill="#34C6A3"/>
<rect x="274.0" y="32.0" width="24.0" height="16.0" fill="#34C6A3"/>
<rect x="318.0" y="32.0" width="24.0" height="16.0" fill="#34C6A3"/>
<rect x="182.0" y="52.0" width="48.0" height="48.0" rx="2" fill="none" stroke="#2A3134" stroke-width="0.75"/>
<rect x="238.0" y="52.0" width="48.0" height="48.0" rx="2" fill="none" stroke="#2A3134" stroke-width="0.75"/>
<rect x="294.0" y="52.0" width="48.0" height="48.0" rx="2" fill="#E4E9E7" stroke="#2A3134" stroke-width="0.75"/>
<rect x="350.0" y="52.0" width="48.0" height="48.0" rx="2" fill="#E4E9E7" stroke="#2A3134" stroke-width="0.75"/>
<rect x="406.0" y="52.0" width="48.0" height="48.0" rx="2" fill="#E4E9E7" stroke="#2A3134" stroke-width="0.75"/>
<rect x="462.0" y="52.0" width="48.0" height="48.0" rx="2" fill="#E4E9E7" stroke="#2A3134" stroke-width="0.75"/>
<rect x="518.0" y="52.0" width="48.0" height="48.0" rx="2" fill="none" stroke="#2A3134" stroke-width="0.75"/>
<rect x="574.0" y="52.0" width="48.0" height="48.0" rx="2" fill="none" stroke="#2A3134" stroke-width="0.75"/>
<rect x="182.0" y="108.0" width="48.0" height="48.0" rx="2" fill="none" stroke="#2A3134" stroke-width="0.75"/>
<rect x="238.0" y="108.0" width="48.0" height="48.0" rx="2" fill="#E4E9E7" stroke="#2A3134" stroke-width="0.75"/>
<rect x="294.0" y="108.0" width="48.0" height="48.0" rx="2" fill="#E4E9E7" stroke="#2A3134" stroke-width="0.75"/>
<rect x="350.0" y="108.0" width="48.0" height="48.0" rx="2" fill="#E4E9E7" stroke="#2A3134" stroke-width="0.75"/>
<rect x="406.0" y="108.0" width="48.0" height="48.0" rx="2" fill="#E4E9E7" stroke="#2A3134" stroke-width="0.75"/>
<rect x="462.0" y="108.0" width="48.0" height="48.0" rx="2" fill="#E4E9E7" stroke="#2A3134" stroke-width="0.75"/>
<rect x="518.0" y="108.0" width="48.0" height="48.0" rx="2" fill="#E4E9E7" stroke="#2A3134" stroke-width="0.75"/>
<rect x="574.0" y="108.0" width="48.0" height="48.0" rx="2" fill="none" stroke="#2A3134" stroke-width="0.75"/>
<rect x="182.0" y="164.0" width="48.0" height="48.0" rx="2" fill="#E4E9E7" stroke="#2A3134" stroke-width="0.75"/>
<rect x="238.0" y="164.0" width="48.0" height="48.0" rx="2" fill="#E4E9E7" stroke="#2A3134" stroke-width="0.75"/>
<rect x="294.0" y="164.0" width="48.0" height="48.0" rx="2" fill="none" stroke="#2A3134" stroke-width="0.75"/>
<rect x="350.0" y="164.0" width="48.0" height="48.0" rx="2" fill="#E4E9E7" stroke="#2A3134" stroke-width="0.75"/>
<rect x="406.0" y="164.0" width="48.0" height="48.0" rx="2" fill="#E4E9E7" stroke="#2A3134" stroke-width="0.75"/>
<rect x="462.0" y="164.0" width="48.0" height="48.0" rx="2" fill="none" stroke="#2A3134" stroke-width="0.75"/>
<rect x="518.0" y="164.0" width="48.0" height="48.0" rx="2" fill="#E4E9E7" stroke="#2A3134" stroke-width="0.75"/>
<rect x="574.0" y="164.0" width="48.0" height="48.0" rx="2" fill="#E4E9E7" stroke="#2A3134" stroke-width="0.75"/>
<rect x="182.0" y="220.0" width="48.0" height="48.0" rx="2" fill="#E4E9E7" stroke="#2A3134" stroke-width="0.75"/>
<rect x="238.0" y="220.0" width="48.0" height="48.0" rx="2" fill="#E4E9E7" stroke="#2A3134" stroke-width="0.75"/>
<rect x="294.0" y="220.0" width="48.0" height="48.0" rx="2" fill="#E4E9E7" stroke="#2A3134" stroke-width="0.75"/>
<rect x="350.0" y="220.0" width="48.0" height="48.0" rx="2" fill="#E4E9E7" stroke="#2A3134" stroke-width="0.75"/>
<rect x="406.0" y="220.0" width="48.0" height="48.0" rx="2" fill="#E4E9E7" stroke="#2A3134" stroke-width="0.75"/>
<rect x="462.0" y="220.0" width="48.0" height="48.0" rx="2" fill="#E4E9E7" stroke="#2A3134" stroke-width="0.75"/>
<rect x="518.0" y="220.0" width="48.0" height="48.0" rx="2" fill="#E4E9E7" stroke="#2A3134" stroke-width="0.75"/>
<rect x="574.0" y="220.0" width="48.0" height="48.0" rx="2" fill="#E4E9E7" stroke="#2A3134" stroke-width="0.75"/>
<rect x="182.0" y="276.0" width="48.0" height="48.0" rx="2" fill="#E4E9E7" stroke="#2A3134" stroke-width="0.75"/>
<rect x="238.0" y="276.0" width="48.0" height="48.0" rx="2" fill="#E4E9E7" stroke="#2A3134" stroke-width="0.75"/>
<rect x="294.0" y="276.0" width="48.0" height="48.0" rx="2" fill="#E4E9E7" stroke="#2A3134" stroke-width="0.75"/>
<rect x="350.0" y="276.0" width="48.0" height="48.0" rx="2" fill="none" stroke="#2A3134" stroke-width="0.75"/>
<rect x="406.0" y="276.0" width="48.0" height="48.0" rx="2" fill="none" stroke="#2A3134" stroke-width="0.75"/>
<rect x="462.0" y="276.0" width="48.0" height="48.0" rx="2" fill="#E4E9E7" stroke="#2A3134" stroke-width="0.75"/>
<rect x="518.0" y="276.0" width="48.0" height="48.0" rx="2" fill="#E4E9E7" stroke="#2A3134" stroke-width="0.75"/>
<rect x="574.0" y="276.0" width="48.0" height="48.0" rx="2" fill="#E4E9E7" stroke="#2A3134" stroke-width="0.75"/>
<rect x="182.0" y="332.0" width="48.0" height="48.0" rx="2" fill="none" stroke="#2A3134" stroke-width="0.75"/>
<rect x="238.0" y="332.0" width="48.0" height="48.0" rx="2" fill="#E4E9E7" stroke="#2A3134" stroke-width="0.75"/>
<rect x="294.0" y="332.0" width="48.0" height="48.0" rx="2" fill="#E4E9E7" stroke="#2A3134" stroke-width="0.75"/>
<rect x="350.0" y="332.0" width="48.0" height="48.0" rx="2" fill="#E4E9E7" stroke="#2A3134" stroke-width="0.75"/>
<rect x="406.0" y="332.0" width="48.0" height="48.0" rx="2" fill="#E4E9E7" stroke="#2A3134" stroke-width="0.75"/>
<rect x="462.0" y="332.0" width="48.0" height="48.0" rx="2" fill="#E4E9E7" stroke="#2A3134" stroke-width="0.75"/>
<rect x="518.0" y="332.0" width="48.0" height="48.0" rx="2" fill="#E4E9E7" stroke="#2A3134" stroke-width="0.75"/>
<rect x="574.0" y="332.0" width="48.0" height="48.0" rx="2" fill="none" stroke="#2A3134" stroke-width="0.75"/>
<rect x="182.0" y="388.0" width="48.0" height="48.0" rx="2" fill="none" stroke="#2A3134" stroke-width="0.75"/>
<rect x="238.0" y="388.0" width="48.0" height="48.0" rx="2" fill="#E4E9E7" stroke="#2A3134" stroke-width="0.75"/>
<rect x="294.0" y="388.0" width="48.0" height="48.0" rx="2" fill="none" stroke="#2A3134" stroke-width="0.75"/>
<rect x="350.0" y="388.0" width="48.0" height="48.0" rx="2" fill="#E4E9E7" stroke="#2A3134" stroke-width="0.75"/>
<rect x="406.0" y="388.0" width="48.0" height="48.0" rx="2" fill="#E4E9E7" stroke="#2A3134" stroke-width="0.75"/>
<rect x="462.0" y="388.0" width="48.0" height="48.0" rx="2" fill="none" stroke="#2A3134" stroke-width="0.75"/>
<rect x="518.0" y="388.0" width="48.0" height="48.0" rx="2" fill="#E4E9E7" stroke="#2A3134" stroke-width="0.75"/>
<rect x="574.0" y="388.0" width="48.0" height="48.0" rx="2" fill="none" stroke="#2A3134" stroke-width="0.75"/>
<rect x="182.0" y="444.0" width="48.0" height="48.0" rx="2" fill="none" stroke="#2A3134" stroke-width="0.75"/>
<rect x="238.0" y="444.0" width="48.0" height="48.0" rx="2" fill="none" stroke="#2A3134" stroke-width="0.75"/>
<rect x="294.0" y="444.0" width="48.0" height="48.0" rx="2" fill="#E4E9E7" stroke="#2A3134" stroke-width="0.75"/>
<rect x="350.0" y="444.0" width="48.0" height="48.0" rx="2" fill="#E4E9E7" stroke="#2A3134" stroke-width="0.75"/>
<rect x="406.0" y="444.0" width="48.0" height="48.0" rx="2" fill="#E4E9E7" stroke="#2A3134" stroke-width="0.75"/>
<rect x="462.0" y="444.0" width="48.0" height="48.0" rx="2" fill="#E4E9E7" stroke="#2A3134" stroke-width="0.75"/>
<rect x="518.0" y="444.0" width="48.0" height="48.0" rx="2" fill="none" stroke="#2A3134" stroke-width="0.75"/>
<rect x="574.0" y="444.0" width="48.0" height="48.0" rx="2" fill="none" stroke="#2A3134" stroke-width="0.75"/>
<line x1="406.0" y1="24.0" x2="126.0" y2="40" stroke="#939E9F" stroke-width="1"/>
<circle cx="406.0" cy="24.0" r="2.5" fill="#939E9F"/>
<text x="132.0" y="44" font-size="12.5" fill="#939E9F" text-anchor="end">2 px lit border: registration</text>
<line x1="274.0" y1="40.0" x2="126.0" y2="78" stroke="#939E9F" stroke-width="1"/>
<circle cx="274.0" cy="40.0" r="2.5" fill="#939E9F"/>
<text x="132.0" y="82" font-size="12.5" fill="#939E9F" text-anchor="end">page tag blobs: 1, 2, 3 ...</text>
<line x1="206.0" y1="76.0" x2="126.0" y2="150" stroke="#939E9F" stroke-width="1"/>
<circle cx="206.0" cy="76.0" r="2.5" fill="#939E9F"/>
<text x="132.0" y="154" font-size="12.5" fill="#939E9F" text-anchor="end">bit 7 of byte 0</text>
<line x1="598.0" y1="468.0" x2="126.0" y2="470" stroke="#939E9F" stroke-width="1"/>
<circle cx="598.0" cy="468.0" r="2.5" fill="#939E9F"/>
<text x="132.0" y="474" font-size="12.5" fill="#939E9F" text-anchor="end">bit 0 of byte 7</text>
<text x="150.0" y="566.0" font-size="13" fill="#E4E9E7" font-weight="600">one page = 8 bytes</text>
<text x="150.0" y="586.0" font-size="12" fill="#939E9F">12 px cells on a 14 px pitch, inset 8 px, MSB leftmost</text>
<text x="150.0" y="606.0" font-size="12" fill="#939E9F">panel polarity is inverted: a 0 bit is LIT</text>
</svg>